<svg xmlns="http://www.w3.org/2000/svg" width="82" height="37" fill="none">
  <path fill="#1B1D1E" fill-rule="evenodd"
    d="M12.23 2.89a1.74 1.74 0 0 1 1.747 1.735v5.781a1.74 1.74 0 0 1-1.747 1.735 1.74 1.74 0 0 1-1.747-1.735V4.625a1.74 1.74 0 0 1 1.747-1.734ZM12.23 15.031a1.74 1.74 0 0 1 1.747 1.735v15.609a1.74 1.74 0 0 1-1.747 1.734 1.74 1.74 0 0 1-1.747-1.734v-15.61a1.74 1.74 0 0 1 1.747-1.734Z"
    clip-rule="evenodd" />
  <path fill="#1B1D1E" fill-rule="evenodd"
    d="M6.989 2.89a1.74 1.74 0 0 1 1.747 1.735v6.938c0 .92.368 1.802 1.023 2.452a3.507 3.507 0 0 0 2.471 1.016c.927 0 1.816-.365 2.47-1.016a3.456 3.456 0 0 0 1.024-2.453V4.625a1.74 1.74 0 0 1 1.748-1.734 1.74 1.74 0 0 1 1.747 1.734v6.938c0 1.84-.737 3.604-2.047 4.905A7.015 7.015 0 0 1 12.23 18.5a7.015 7.015 0 0 1-4.942-2.032 6.912 6.912 0 0 1-2.047-4.905V4.625A1.74 1.74 0 0 1 6.99 2.891ZM30.704 3.204c.467.325.745.855.745 1.421v27.75a1.74 1.74 0 0 1-1.747 1.734 1.74 1.74 0 0 1-1.747-1.734v-7.516h-6.407c-.495 0-.968-.209-1.3-.575a1.726 1.726 0 0 1-.437-1.344l1.737.185-1.737-.185v-.005l.002-.012.005-.04a23.73 23.73 0 0 1 .086-.688c.063-.464.159-1.125.295-1.924.27-1.593.701-3.754 1.343-6.002.637-2.234 1.503-4.625 2.667-6.64 1.143-1.978 2.72-3.848 4.896-4.634a1.758 1.758 0 0 1 1.6.21Zm-7.15 18.187h4.4V8.25c-.24.329-.478.696-.713 1.103-.965 1.67-1.738 3.76-2.337 5.861a53.742 53.742 0 0 0-1.35 6.176Z"
    clip-rule="evenodd" />
  <path fill="#1B1D1E"
    d="M45.896 3a5.15 5.15 0 0 1 1.49.207c.464.138.867.344 1.207.62.347.27.618.609.811 1.016.2.408.3.884.3 1.43v5.574c0 .467-.05.881-.15 1.24a3.58 3.58 0 0 1-.396.927 3.03 3.03 0 0 1-.547.665c-.205.18-.414.327-.626.44a4.012 4.012 0 0 1-1.719.468H43.34c-.335 0-.594-.057-.776-.17a1.044 1.044 0 0 1-.397-.468 2.119 2.119 0 0 1-.15-.666c-.011-.245-.017-.5-.017-.764V5.05c0-.257.006-.509.018-.754.017-.246.067-.465.15-.657a.992.992 0 0 1 .396-.458c.182-.12.44-.18.776-.18h2.556ZM44.68 5.104v8.343h1.146c.252-.012.479-.072.678-.18a1.287 1.287 0 0 0 .467-.423 1.24 1.24 0 0 0 .15-.359c.042-.138.062-.296.062-.476V6.704c0-.198-.02-.371-.062-.521a1.477 1.477 0 0 0-.15-.405 1.224 1.224 0 0 0-.22-.288 1.35 1.35 0 0 0-.247-.188c-.2-.114-.426-.18-.678-.198H44.68ZM58.502 13.555c0 .252-.01.5-.027.746-.018.24-.07.456-.159.648-.088.191-.22.347-.396.467-.177.114-.423.171-.74.171-.324 0-.577-.054-.759-.162a1.153 1.153 0 0 1-.405-.404 1.452 1.452 0 0 1-.168-.504 4.495 4.495 0 0 1-.026-.44c-.053.173-.13.35-.23.53-.093.18-.217.342-.37.486a1.947 1.947 0 0 1-.555.36c-.212.09-.461.134-.75.134-.323 0-.646-.054-.969-.162a2.273 2.273 0 0 1-.873-.54 2.857 2.857 0 0 1-.634-.98c-.159-.407-.238-.907-.238-1.5V9.796c0-.6.08-1.1.238-1.501.164-.408.376-.735.634-.98.259-.252.55-.432.873-.54.323-.108.646-.162.97-.162.288 0 .537.045.749.135a1.808 1.808 0 0 1 .926.836c.1.18.176.36.229.54 0-.3.04-.549.123-.747.082-.197.188-.353.318-.467.129-.12.273-.2.431-.243.165-.048.327-.072.485-.072.294 0 .53.06.705.18.177.114.309.267.397.459.094.185.153.404.176.656.03.246.044.497.044.755v4.91Zm-4.584-1.384c0 .161.006.32.017.476.012.156.044.297.097.423.053.125.13.227.23.305.105.072.25.108.431.108.23 0 .415-.05.556-.153.147-.108.261-.27.344-.485a3.23 3.23 0 0 0 .167-.827c.035-.336.056-.735.062-1.196a4.45 4.45 0 0 0-.053-.638 2.907 2.907 0 0 0-.168-.693 1.572 1.572 0 0 0-.343-.548.756.756 0 0 0-.565-.225c-.182 0-.326.04-.431.117a.69.69 0 0 0-.23.288c-.053.12-.085.257-.097.413a5.84 5.84 0 0 0-.017.459v2.176ZM60.811 8.61c0-.252.012-.497.035-.737.03-.24.091-.453.185-.638.094-.192.23-.345.406-.459.176-.12.414-.18.714-.18s.537.06.714.18c.176.114.311.267.405.459.094.185.153.398.177.638.029.24.044.485.044.737v4.963c0 .252-.015.5-.044.746-.024.24-.083.456-.177.648-.094.185-.229.335-.405.45-.177.113-.415.17-.714.17-.3 0-.538-.057-.714-.17a1.139 1.139 0 0 1-.406-.45 2.018 2.018 0 0 1-.185-.648 7.834 7.834 0 0 1-.035-.746V8.61Zm2.697-4.243c0 .461-.117.806-.352 1.034-.235.221-.564.332-.987.332-.424 0-.753-.11-.988-.332-.235-.228-.352-.573-.352-1.034 0-.48.117-.828.352-1.043.235-.216.564-.324.988-.324.452 0 .787.108 1.004.324.224.215.335.563.335 1.043ZM66.206 4.996c0-.252.011-.498.035-.737.03-.24.091-.453.185-.639.094-.185.23-.335.406-.45.176-.113.414-.17.714-.17.305 0 .546.057.722.17.177.115.309.265.397.45.094.186.153.399.176.639.03.24.044.485.044.737v8.577c0 .252-.014.5-.044.746-.023.24-.082.456-.176.648-.088.185-.22.335-.397.45-.176.113-.417.17-.722.17-.3 0-.538-.057-.715-.17a1.138 1.138 0 0 1-.405-.45 2.016 2.016 0 0 1-.185-.648 7.834 7.834 0 0 1-.035-.746V4.996ZM72.165 19.183c-.67 0-1.146-.099-1.428-.296-.282-.192-.424-.477-.424-.855 0-.185.024-.341.07-.467a.827.827 0 0 1 .213-.306.832.832 0 0 1 .3-.17c.117-.03.24-.045.37-.045.088 0 .17.003.246.008.077.006.141.01.194.01.112 0 .218-.07.317-.207.106-.132.206-.3.3-.504.1-.204.2-.422.3-.656.1-.234.2-.45.3-.647l-.141-.36c-.17-.438-.35-.896-.538-1.376-.188-.485-.376-.974-.564-1.465-.182-.498-.365-.992-.547-1.484a41.674 41.674 0 0 1-.485-1.43 7.615 7.615 0 0 1-.167-.566 2.534 2.534 0 0 1-.062-.548c0-.174.035-.336.106-.485.07-.15.167-.28.29-.387.124-.108.265-.192.424-.252.164-.066.338-.099.52-.099.165 0 .314.036.45.108.14.072.264.171.37.297.112.126.209.27.29.431.083.162.153.333.212.513l1.181 3.794 1.129-3.794c.053-.168.12-.336.203-.504a1.96 1.96 0 0 1 .29-.44c.112-.132.238-.237.38-.315a.896.896 0 0 1 .467-.126c.17 0 .332.033.485.1.158.065.293.158.405.278.118.114.209.252.273.414.07.161.106.335.106.521 0 .18-.023.36-.07.54a4.409 4.409 0 0 1-.16.52l-2.115 5.719c-.123.324-.258.66-.405 1.007-.141.354-.297.698-.467 1.034-.17.335-.353.653-.547.953-.194.3-.4.563-.617.791-.217.228-.45.408-.696.54-.241.137-.494.206-.758.206ZM45.896 21.413a5.15 5.15 0 0 1 1.49.207c.464.138.867.344 1.207.62.347.27.618.609.811 1.016.2.408.3.884.3 1.43v5.574c0 .467-.05.881-.15 1.24a3.58 3.58 0 0 1-.396.927 3.03 3.03 0 0 1-.547.665c-.205.18-.414.327-.626.44a4.012 4.012 0 0 1-1.719.468H43.34c-.335 0-.594-.057-.776-.17a1.044 1.044 0 0 1-.397-.468 2.119 2.119 0 0 1-.15-.666c-.011-.245-.017-.5-.017-.764v-8.47c0-.257.006-.509.018-.754.017-.246.067-.465.15-.657a.992.992 0 0 1 .396-.458c.182-.12.44-.18.776-.18h2.556Zm-1.216 2.104v8.343h1.146c.252-.012.479-.072.678-.18a1.29 1.29 0 0 0 .467-.423 1.24 1.24 0 0 0 .15-.359c.042-.138.062-.296.062-.476v-5.305c0-.198-.02-.371-.062-.521a1.477 1.477 0 0 0-.15-.405 1.223 1.223 0 0 0-.22-.288 1.354 1.354 0 0 0-.247-.188c-.2-.114-.426-.18-.678-.198H44.68ZM51.82 27.023c0-.252.011-.497.035-.737.03-.24.091-.453.185-.638.094-.192.23-.345.406-.459.176-.12.414-.18.714-.18s.537.06.714.18c.176.114.311.267.405.459.094.185.153.398.176.638.03.24.044.485.044.737v4.963c0 .252-.014.5-.044.746-.023.24-.082.456-.176.648-.094.185-.229.335-.405.45-.177.113-.415.17-.714.17-.3 0-.538-.057-.714-.17a1.138 1.138 0 0 1-.406-.45 2.016 2.016 0 0 1-.185-.648 7.834 7.834 0 0 1-.035-.746v-4.963Zm2.697-4.243c0 .461-.117.806-.353 1.034-.235.221-.564.332-.987.332-.423 0-.752-.11-.987-.332-.235-.228-.353-.573-.353-1.034 0-.48.118-.828.353-1.043.235-.216.564-.324.987-.324.453 0 .788.108 1.005.324.224.215.335.563.335 1.043ZM64.231 28.875c0 .096-.006.21-.017.342a.775.775 0 0 1-.141.369.922.922 0 0 1-.37.296c-.171.084-.412.126-.724.126h-3.508v.863c0 .144.018.294.053.45.035.156.094.3.176.431.088.132.203.24.344.324.141.084.315.126.52.126.235 0 .414-.027.538-.081.13-.06.229-.132.3-.216.076-.084.143-.174.202-.27.06-.096.136-.185.23-.27.1-.083.235-.152.405-.206.176-.06.417-.09.723-.09.147 0 .288.012.423.036.141.024.264.069.37.135a.727.727 0 0 1 .256.279.907.907 0 0 1 .097.45c0 .389-.12.715-.362.98-.24.257-.543.464-.908.62a4.907 4.907 0 0 1-1.19.332c-.423.066-.82.099-1.19.099a5.546 5.546 0 0 1-1.392-.189 3.317 3.317 0 0 1-1.173-.575 2.809 2.809 0 0 1-.802-1.034c-.2-.426-.3-.947-.3-1.564v-2.104c0-.57.065-1.052.194-1.448a3.24 3.24 0 0 1 .52-.989c.212-.264.45-.467.714-.611a3.4 3.4 0 0 1 .803-.333c.27-.072.526-.117.766-.135.247-.018.459-.027.635-.027.594 0 1.099.054 1.516.162.423.108.776.249 1.058.423.282.174.505.374.67.602.164.228.288.465.37.71.082.24.135.486.159.738.023.245.035.476.035.692v.557Zm-4.76-.215h2.204c0-.282-.009-.53-.027-.747a1.384 1.384 0 0 0-.132-.557.713.713 0 0 0-.344-.342c-.152-.078-.373-.117-.66-.117-.242 0-.433.04-.574.117a.826.826 0 0 0-.308.297.926.926 0 0 0-.132.369 2.67 2.67 0 0 0-.027.35v.63ZM67.246 25.01v-1.583c0-.252.012-.498.035-.737.03-.24.091-.453.185-.639.094-.191.23-.344.406-.458.176-.12.414-.18.714-.18.293 0 .529.06.705.18.176.114.308.267.397.458.094.186.152.399.176.639.03.24.044.485.044.737v1.582h.723c.153 0 .305.01.458.027a.899.899 0 0 1 .406.126c.123.072.22.18.29.324.077.144.115.344.115.602 0 .246-.038.44-.115.585a.738.738 0 0 1-.29.323c-.118.072-.253.12-.406.144a3.915 3.915 0 0 1-.458.027h-.723v3.147c0 .12.003.248.009.386a1.1 1.1 0 0 0 .097.369c.053.114.132.21.238.288.106.072.255.108.45.108.21 0 .39.018.537.054.153.03.276.087.37.17.1.084.174.201.22.351.048.15.071.342.071.575 0 .24-.056.447-.167.62-.106.175-.25.319-.432.432a2.02 2.02 0 0 1-.635.252c-.24.054-.494.081-.758.081a3.77 3.77 0 0 1-1.076-.135 2.17 2.17 0 0 1-.74-.378 1.974 1.974 0 0 1-.467-.593 3.374 3.374 0 0 1-.256-.782 7.288 7.288 0 0 1-.106-.926 29.976 29.976 0 0 1-.017-1.052v-2.967h-.494c-.153 0-.305-.009-.458-.027a1.086 1.086 0 0 1-.397-.144.815.815 0 0 1-.29-.323c-.071-.144-.106-.34-.106-.585 0-.258.035-.458.105-.602a.815.815 0 0 1 .291-.324.885.885 0 0 1 .397-.126c.153-.018.305-.027.458-.027h.494Z" />
</svg>